<?xml version="1.0" encoding="UTF-8" standalone="no"?>
<svg
   id="svg"
   width="400"
   height="144.55017301038063"
   viewBox="0, 0, 400,144.55017301038063"
   version="1.1"
   sodipodi:docname="image2vector.svg"
   inkscape:version="1.2.2 (b0a8486541, 2022-12-01)"
   xmlns:inkscape="http://www.inkscape.org/namespaces/inkscape"
   xmlns:sodipodi="http://sodipodi.sourceforge.net/DTD/sodipodi-0.dtd"
   xmlns="http://www.w3.org/2000/svg"
   xmlns:svg="http://www.w3.org/2000/svg">
  <defs
     id="defs7" />
  <sodipodi:namedview
     id="namedview5"
     pagecolor="#ffffff"
     bordercolor="#666666"
     borderopacity="1.0"
     inkscape:showpageshadow="2"
     inkscape:pageopacity="0.0"
     inkscape:pagecheckerboard="0"
     inkscape:deskcolor="#d1d1d1"
     showgrid="false"
     inkscape:zoom="3.275"
     inkscape:cx="199.54198"
     inkscape:cy="72.519084"
     inkscape:window-width="1852"
     inkscape:window-height="1140"
     inkscape:window-x="68"
     inkscape:window-y="32"
     inkscape:window-maximized="1"
     inkscape:current-layer="svg" />
  <g
     id="svgg"
     style="fill:#241a14">
    <path
       id="path0"
       d="M54.801 0.097 C -2.740 2.573,-17.170 34.993,21.886 74.048 C 54.232 106.395,114.770 134.678,171.875 144.124 C 173.320 144.363,174.564 144.547,174.639 144.532 C 174.714 144.518,173.668 144.199,172.314 143.823 C 90.058 120.982,29.859 61.311,46.855 19.464 C 49.784 12.252,55.212 5.722,62.457 0.696 C 62.956 0.349,63.381 0.051,63.401 0.033 C 63.467 -0.027,56.470 0.025,54.801 0.097 M346.817 52.246 C 338.909 66.423,332.439 78.043,332.439 78.068 C 332.439 78.094,334.415 78.113,336.830 78.112 L 341.220 78.110 344.550 71.809 L 347.881 65.508 354.628 65.447 C 358.339 65.414,366.352 65.399,372.435 65.414 L 383.495 65.441 386.855 71.756 L 390.214 78.071 395.107 78.093 C 397.798 78.106,400.000 78.086,400.000 78.049 C 400.000 78.013,393.405 66.403,385.345 52.249 L 370.690 26.514 365.942 26.491 L 361.195 26.469 346.817 52.246 M196.626 52.422 L 196.626 78.287 201.081 78.287 L 205.536 78.287 205.536 68.526 C 205.536 63.158,205.510 51.519,205.479 42.661 L 205.421 26.557 201.024 26.557 L 196.626 26.557 196.626 52.422 M247.318 44.707 C 247.318 54.692,247.344 66.312,247.376 70.531 L 247.433 78.201 251.831 78.201 L 256.228 78.201 256.228 68.166 L 256.228 58.131 263.953 58.131 L 271.678 58.131 282.401 68.163 L 293.123 78.194 299.724 78.198 C 303.623 78.199,306.305 78.169,306.277 78.123 C 306.250 78.080,300.856 73.574,294.289 68.110 L 282.349 58.175 287.131 58.122 C 292.137 58.066,292.971 58.010,294.600 57.618 C 298.374 56.708,300.386 54.387,300.913 50.334 C 301.118 48.761,301.050 34.732,300.832 33.651 C 300.016 29.594,297.967 27.640,293.642 26.794 L 292.690 26.608 270.004 26.581 L 247.318 26.554 247.318 44.707 M96.453 52.465 L 96.453 78.287 100.574 78.287 L 104.695 78.287 104.637 61.138 C 104.575 42.831,104.519 40.381,104.100 37.284 L 104.047 36.894 104.498 37.543 C 105.068 38.363,105.575 38.975,106.351 39.778 C 106.688 40.127,116.593 48.925,128.363 59.328 L 149.762 78.244 152.260 78.267 L 154.758 78.290 154.758 52.467 L 154.758 26.644 150.692 26.644 L 146.626 26.644 146.627 42.712 C 146.629 60.833,146.667 62.330,147.233 66.217 C 147.323 66.834,147.388 67.346,147.379 67.354 C 147.369 67.363,146.977 66.906,146.507 66.339 C 143.790 63.059,144.502 63.706,121.715 43.818 L 102.036 26.644 99.245 26.644 L 96.453 26.644 96.453 52.465 M372.809 45.656 L 379.831 58.694 372.787 58.716 C 368.914 58.728,362.580 58.728,358.713 58.716 L 351.682 58.694 358.684 45.653 C 362.536 38.481,365.710 32.614,365.737 32.615 C 365.765 32.617,368.947 38.485,372.809 45.656 M288.790 33.501 C 290.501 33.920,291.347 34.710,291.852 36.361 C 292.061 37.047,292.113 46.946,291.913 47.962 C 291.570 49.703,290.704 50.634,288.999 51.100 C 288.491 51.238,287.282 51.251,272.340 51.275 L 256.228 51.301 256.228 42.301 L 256.228 33.300 272.210 33.327 C 286.877 33.352,288.241 33.366,288.790 33.501 M381.701 96.628 C 379.309 96.870,378.792 97.665,378.802 101.086 C 378.809 103.797,379.074 104.551,380.207 105.082 C 381.071 105.487,381.227 105.495,387.868 105.467 L 394.118 105.440 394.118 107.781 L 394.118 110.121 387.543 110.121 L 380.969 110.121 380.969 108.867 C 380.969 107.920,380.942 107.613,380.861 107.615 C 380.801 107.616,380.169 107.744,379.455 107.898 L 378.157 108.178 378.165 109.214 C 378.180 111.303,378.889 112.101,380.969 112.368 C 381.816 112.477,392.885 112.479,393.916 112.370 C 396.397 112.109,396.839 111.422,396.841 107.829 C 396.843 104.562,396.563 103.873,395.026 103.362 L 394.420 103.161 387.954 103.133 L 381.488 103.106 381.488 100.947 L 381.488 98.789 387.760 98.789 L 394.031 98.789 394.031 99.947 L 394.031 101.105 395.335 100.777 C 396.900 100.383,396.735 100.546,396.636 99.494 C 396.480 97.841,395.954 97.166,394.488 96.739 C 393.930 96.577,383.132 96.483,381.701 96.628 M241.287 96.691 L 240.489 96.719 237.231 100.155 C 235.438 102.044,233.944 103.601,233.909 103.615 C 233.874 103.629,232.310 102.081,230.433 100.175 L 227.021 96.709 225.089 96.733 L 223.157 96.756 227.711 101.211 L 232.265 105.666 232.265 109.105 L 232.266 112.543 233.780 112.543 L 235.294 112.543 235.294 109.071 L 235.294 105.600 239.749 101.191 C 242.199 98.766,244.204 96.747,244.204 96.704 C 244.204 96.631,243.106 96.626,241.287 96.691 M249.567 104.585 L 249.567 112.543 250.952 112.543 L 252.336 112.543 252.328 106.769 C 252.324 103.593,252.293 100.771,252.259 100.498 L 252.197 100.002 252.591 100.422 C 252.807 100.654,256.282 103.475,260.312 106.693 L 267.640 112.543 268.522 112.543 L 269.405 112.543 269.348 110.143 C 269.317 108.822,269.291 105.241,269.291 102.184 L 269.291 96.626 267.900 96.626 L 266.510 96.626 266.552 102.444 C 266.575 105.643,266.621 108.417,266.653 108.607 L 266.713 108.953 265.947 108.206 C 265.526 107.794,262.096 105.021,258.325 102.042 L 251.469 96.626 250.518 96.626 L 249.567 96.626 249.567 104.585 M285.523 97.080 C 284.683 98.404,276.038 112.456,276.038 112.498 C 276.038 112.525,276.725 112.537,277.564 112.524 L 279.090 112.500 280.213 110.575 L 281.336 108.649 287.357 108.672 L 293.378 108.694 294.474 110.554 L 295.569 112.413 297.274 112.437 C 298.306 112.451,298.966 112.429,298.948 112.379 C 298.932 112.335,296.700 108.773,293.988 104.465 L 289.057 96.631 287.434 96.629 L 285.811 96.626 285.523 97.080 M306.401 104.542 L 306.401 112.457 307.702 112.457 L 309.003 112.457 308.978 106.194 L 308.953 99.931 309.198 100.386 C 309.332 100.637,311.156 102.901,313.251 105.417 L 317.060 109.991 317.470 110.017 L 317.879 110.043 321.400 105.499 C 323.337 103.000,325.096 100.672,325.309 100.326 L 325.697 99.697 325.641 100.303 C 325.569 101.081,325.557 102.658,325.584 108.067 L 325.606 112.457 326.990 112.457 L 328.374 112.457 328.374 104.542 L 328.374 96.626 326.956 96.626 L 325.539 96.626 321.614 101.615 C 319.456 104.359,317.651 106.657,317.604 106.720 C 317.538 106.808,316.471 105.599,313.199 101.731 L 308.881 96.626 307.641 96.626 L 306.401 96.626 306.401 104.542 M337.226 102.220 C 337.258 105.297,337.284 108.859,337.284 110.135 L 337.284 112.457 338.798 112.457 L 340.311 112.457 340.311 104.542 L 340.311 96.626 338.740 96.626 L 337.169 96.626 337.226 102.220 M353.222 96.757 C 352.120 96.997,351.462 97.543,351.148 98.479 C 350.966 99.023,350.870 108.813,351.036 109.888 C 351.279 111.452,352.001 112.130,353.676 112.368 C 354.456 112.478,365.552 112.483,366.479 112.374 C 368.346 112.153,369.050 111.516,369.283 109.834 C 369.390 109.068,369.411 106.748,369.312 106.747 C 369.277 106.746,368.625 106.630,367.863 106.488 C 367.102 106.346,366.431 106.229,366.371 106.229 C 366.288 106.229,366.263 106.675,366.263 108.175 L 366.263 110.121 360.121 110.121 L 353.979 110.121 353.979 104.455 L 353.979 98.789 360.121 98.789 L 366.263 98.789 366.263 100.607 L 366.263 102.425 366.458 102.381 C 366.702 102.326,369.248 101.903,369.337 101.903 C 369.373 101.903,369.381 101.251,369.354 100.454 C 369.268 97.890,368.801 97.103,367.159 96.755 C 366.317 96.577,354.046 96.579,353.222 96.757 M197.059 104.628 L 197.059 112.555 203.439 112.517 C 210.998 112.472,211.619 112.409,213.452 111.500 C 218.903 108.797,218.804 100.163,213.293 97.665 C 211.456 96.832,210.925 96.781,203.482 96.739 L 197.059 96.702 197.059 104.628 M289.791 102.698 L 292.025 106.445 289.698 106.468 C 288.418 106.480,286.319 106.480,285.034 106.468 L 282.698 106.445 285.012 102.531 C 287.110 98.985,287.338 98.634,287.442 98.784 C 287.505 98.876,288.562 100.637,289.791 102.698 M209.194 99.090 C 212.833 99.639,214.353 101.235,214.358 104.512 C 214.363 107.497,213.142 109.191,210.510 109.850 C 209.190 110.181,208.577 110.223,204.361 110.269 L 200.202 110.314 200.144 106.527 C 200.112 104.444,200.087 101.890,200.087 100.851 L 200.087 98.962 204.217 98.962 C 207.414 98.963,208.539 98.992,209.194 99.090 "
       stroke="none"
       fill="#241a14"
       fill-rule="evenodd"
       style="fill:#241a14" />
  </g>
</svg>
